# Blender v2.93.5 OBJ File: 'Houki.blend'
# www.blender.org
mtllib 3.mtl
o Houki.003_실린더.003
v 0.001757 -0.003631 0.000466
v 0.001721 -0.000514 0.001474
v -0.000221 0.002342 0.001780
v -0.001691 0.004105 0.000953
v -0.002766 0.002150 -0.000590
v 0.002000 0.004122 -0.001278
v 0.001496 0.005683 -0.001011
v 0.001908 0.002569 0.001000
v -0.000613 0.001717 -0.001883
v 0.000728 0.004731 0.000320
v -0.000789 -0.001229 0.000466
v 0.002080 0.000785 -0.001336
vt 0.108737 0.391309
vt 0.089573 0.415944
vt 0.070081 0.420900
vt 0.096019 0.442265
vt 0.059694 0.457518
vt 0.074560 0.411397
vt 0.063796 0.413739
vt 0.057841 0.405878
vt 0.072929 0.428537
vt 0.064541 0.419613
vt 0.030597 0.449197
vt 0.053438 0.381752
vt 0.061194 0.428055
vt 0.026065 0.424374
vn -0.2939 -0.2973 0.9084
vn 0.9904 0.0214 0.1364
vn -0.2764 -0.2930 0.9153
vn -0.4750 -0.5035 -0.7217
vn -0.5133 -0.5255 -0.6785
vn 0.9981 -0.0608 -0.0013
vn -0.6001 0.6721 -0.4338
vn 0.3297 0.1240 0.9359
vn 0.0558 -0.3807 -0.9230
vn -0.0697 0.8301 0.5533
vn -0.4118 0.3991 -0.8192
vn 0.0563 0.1857 -0.9810
vn 0.5396 0.5061 0.6729
vn 0.9387 0.2660 0.2192
vn 0.1002 0.4896 0.8662
vn -0.6851 -0.1804 0.7058
vn 0.2722 0.4207 0.8654
vn -0.6346 -0.1761 0.7525
vn 0.9930 -0.0257 0.1150
vn 0.2063 0.0221 -0.9782
usemtl 매테리얼.001
s off
f 1/1/1 2/2/1 3/3/1
f 2/2/2 12/4/2 6/5/2
f 1/1/3 3/3/3 11/6/3
f 1/1/4 11/6/4 5/7/4
f 1/1/5 5/7/5 9/8/5
f 2/2/6 6/5/6 8/9/6
f 5/7/7 4/10/7 7/11/7
f 2/2/8 8/9/8 3/3/8
f 9/8/9 12/12/9 1/1/9
f 4/10/10 10/13/10 7/11/10
f 9/8/11 5/7/11 7/11/11
f 6/14/12 9/8/12 7/11/12
f 10/13/13 8/9/13 7/11/13
f 8/9/14 6/5/14 7/11/14
f 10/13/15 4/10/15 3/3/15
f 5/7/16 11/6/16 4/10/16
f 3/3/17 8/9/17 10/13/17
f 11/6/18 3/3/18 4/10/18
f 12/4/19 2/2/19 1/1/19
f 12/12/20 9/8/20 6/14/20
