# Blender v2.93.5 OBJ File: 'Houki.blend'
# www.blender.org
mtllib 4.mtl
o Houki.004_실린더.004
v 0.001329 0.012393 0.000118
v 0.003521 0.010939 -0.001118
v 0.001590 0.008695 -0.003201
v -0.001485 0.006520 0.000118
v 0.001053 0.006111 0.004167
v 0.005340 0.006819 0.002256
v -0.002134 -0.002172 -0.004012
v -0.004874 0.001364 -0.002019
v -0.003736 0.001258 0.002256
v -0.000700 -0.004698 0.003577
v 0.005678 0.004141 0.000118
v -0.002714 -0.010307 0.000118
v -0.001350 0.004901 0.003740
v 0.003134 0.008097 0.002916
vt 0.031220 0.235258
vt 0.066739 0.223068
vt 0.073667 0.252955
vt 0.009876 0.254574
vt 0.026759 0.289706
vt 0.067021 0.273558
vt 0.052062 0.286104
vt 0.036419 0.280543
vt 0.018266 0.307157
vt 0.102844 0.289342
vt 0.084633 0.287630
vt 0.062065 0.287779
vt 0.073814 0.318729
vt 0.117934 0.239230
vt 0.074613 0.294182
vt 0.117934 0.353605
vn 0.0245 0.6687 -0.7431
vn 0.6539 0.6307 0.4179
vn -0.7894 0.3782 -0.4834
vn -0.7702 0.3690 0.5202
vn -0.0124 0.5420 0.8403
vn 0.9460 0.2665 -0.1846
vn 0.8286 -0.2464 -0.5028
vn -0.7408 0.6066 -0.2887
vn -0.4691 0.7996 0.3749
vn 0.2700 -0.0312 0.9623
vn 0.4736 -0.0099 -0.8807
vn -0.3927 0.2015 -0.8973
vn -0.8540 0.4623 0.2389
vn -0.1613 -0.0277 0.9865
vn 0.7662 -0.3392 0.5458
vn 0.6531 -0.3793 -0.6554
vn -0.7598 -0.2505 -0.6000
vn -0.9588 -0.1313 0.2520
vn -0.6816 -0.1908 0.7064
vn 0.8257 -0.4796 0.2969
vn -0.4748 -0.0471 0.8788
vn -0.8541 0.4622 0.2384
vn 0.5295 0.6079 0.5917
vn 0.6052 -0.1409 0.7835
usemtl 매테리얼.001
s off
f 1/1/1 2/2/1 3/3/1
f 2/4/2 1/1/2 6/5/2
f 1/1/3 3/3/3 4/6/3
f 1/1/4 4/6/4 5/7/4
f 1/1/5 5/7/5 14/8/5
f 2/4/6 6/5/6 11/9/6
f 3/3/7 2/2/7 7/10/7
f 4/6/8 3/3/8 8/11/8
f 5/7/9 4/6/9 13/12/9
f 6/5/10 14/8/10 10/13/10
f 2/2/11 11/14/11 7/10/11
f 3/3/12 7/10/12 8/11/12
f 4/6/13 8/11/13 9/15/13
f 5/7/14 13/12/14 10/13/14
f 6/5/15 10/13/15 11/9/15
f 7/10/16 11/14/16 12/16/16
f 8/11/17 7/10/17 12/16/17
f 9/15/18 8/11/18 12/16/18
f 10/13/19 9/15/19 12/16/19
f 11/9/20 10/13/20 12/16/20
f 10/13/21 13/12/21 9/15/21
f 13/12/22 4/6/22 9/15/22
f 14/8/23 6/5/23 1/1/23
f 10/13/24 14/8/24 5/7/24
