# Blender v2.93.5 OBJ File: 'Houki.blend'
# www.blender.org
mtllib 5.mtl
o Houki.005_실린더.005
v -0.002012 0.015449 -0.000485
v -0.003223 0.007407 0.001019
v -0.000477 0.008091 0.003553
v 0.000526 0.008280 -0.000485
v -0.000483 0.003981 -0.004823
v -0.005977 0.004967 -0.003085
v 0.001244 -0.005777 0.003013
v 0.005569 -0.000532 0.002115
v 0.006001 -0.002546 -0.001843
v 0.000000 -0.008427 -0.003450
v -0.006166 -0.002921 -0.000485
v -0.002679 -0.010763 -0.000485
v 0.002077 0.000650 -0.004553
v -0.002465 0.007761 -0.003306
vt 0.199235 0.218637
vt 0.209590 0.284658
vt 0.195333 0.280679
vt 0.238300 0.314842
vt 0.182859 0.274346
vt 0.166164 0.283226
vt 0.166273 0.260847
vt 0.187202 0.316656
vt 0.178525 0.306712
vt 0.177514 0.296151
vt 0.168044 0.292015
vt 0.145664 0.263305
vt 0.149959 0.330064
vt 0.170748 0.296298
vt 0.172288 0.313660
vn -0.6902 0.2321 0.6853
vn -0.8653 0.2150 0.4529
vn 0.9146 0.3238 0.2423
vn 0.8260 0.2924 -0.4819
vn -0.0549 0.3468 -0.9363
vn -0.8627 0.1768 0.4738
vn -0.6590 -0.1107 0.7440
vn 0.8148 0.5333 0.2273
vn 0.6553 0.4548 -0.6032
vn -0.0624 -0.0006 -0.9981
vn -0.4297 -0.0090 0.9029
vn 0.2163 -0.0112 0.9763
vn 0.8766 0.4607 -0.1389
vn -0.0403 -0.1114 -0.9930
vn -0.5868 -0.2408 -0.7731
vn -0.4835 -0.2150 0.8486
vn 0.7739 -0.6324 0.0339
vn 0.6633 -0.6352 0.3956
vn 0.6911 -0.7206 0.0563
vn -0.6009 -0.2672 -0.7534
vn 0.4367 -0.2063 -0.8756
vn 0.7238 0.4334 -0.5369
vn -0.3280 0.3424 -0.8804
vn -0.7216 -0.1038 -0.6845
usemtl 매테리얼.001
s off
f 1/1/1 2/2/1 3/3/1
f 2/2/2 1/1/2 6/4/2
f 1/1/3 3/3/3 4/5/3
f 1/1/4 4/5/4 5/6/4
f 1/1/5 5/6/5 14/7/5
f 2/2/6 6/4/6 11/8/6
f 3/3/7 2/2/7 7/9/7
f 4/5/8 3/3/8 8/10/8
f 5/6/9 4/5/9 13/11/9
f 6/12/10 14/7/10 10/13/10
f 2/2/11 11/8/11 7/9/11
f 3/3/12 7/9/12 8/10/12
f 4/5/13 8/10/13 9/14/13
f 5/6/14 13/11/14 10/13/14
f 6/4/15 10/13/15 11/8/15
f 7/9/16 11/8/16 12/15/16
f 8/10/17 7/9/17 12/15/17
f 9/14/18 8/10/18 12/15/18
f 10/13/19 9/14/19 12/15/19
f 11/8/20 10/13/20 12/15/20
f 10/13/21 13/11/21 9/14/21
f 13/11/22 4/5/22 9/14/22
f 14/7/23 6/12/23 1/1/23
f 10/13/24 14/7/24 5/6/24
